<mxfile host="app.diagrams.net" agent="Mozilla/5.0 (Windows NT 10.0; Win64; x64) AppleWebKit/537.36 (KHTML, like Gecko) Chrome/129.0.0.0 Safari/537.36" version="24.7.17">
  <diagram name="Page-1" id="9f46799a-70d6-7492-0946-bef42562c5a5">
    <mxGraphModel grid="1" page="1" gridSize="10" guides="1" tooltips="1" connect="1" arrows="1" fold="1" pageScale="1" pageWidth="1100" pageHeight="850" background="none" math="0" shadow="0">
      <root>
        <mxCell id="0" />
        <mxCell id="1" parent="0" />
        <mxCell id="78961159f06e98e8-17" value="Ticket" style="swimlane;html=1;fontStyle=1;align=center;verticalAlign=top;childLayout=stackLayout;horizontal=1;startSize=26;horizontalStack=0;resizeParent=1;resizeLast=0;collapsible=1;marginBottom=0;swimlaneFillColor=#ffffff;rounded=0;shadow=0;comic=0;labelBackgroundColor=none;strokeWidth=1;fillColor=none;fontFamily=Verdana;fontSize=12" vertex="1" parent="1">
          <mxGeometry x="-920" y="10" width="310" height="268" as="geometry" />
        </mxCell>
        <mxCell id="78961159f06e98e8-23" value="&lt;div&gt;cliente:string;&lt;/div&gt;&lt;div&gt;hora:time;&lt;/div&gt;&lt;div&gt;dia:Date;&lt;/div&gt;&lt;div&gt;totalApagar:real;&lt;/div&gt;&lt;div&gt;cantidadDeProductos: integer;&lt;/div&gt;&lt;div&gt;l:lista;&lt;/div&gt;" style="text;html=1;strokeColor=none;fillColor=none;align=left;verticalAlign=top;spacingLeft=4;spacingRight=4;whiteSpace=wrap;overflow=hidden;rotatable=0;points=[[0,0.5],[1,0.5]];portConstraint=eastwest;" vertex="1" parent="78961159f06e98e8-17">
          <mxGeometry y="26" width="310" height="94" as="geometry" />
        </mxCell>
        <mxCell id="78961159f06e98e8-19" value="" style="line;html=1;strokeWidth=1;fillColor=none;align=left;verticalAlign=middle;spacingTop=-1;spacingLeft=3;spacingRight=3;rotatable=0;labelPosition=right;points=[];portConstraint=eastwest;" vertex="1" parent="78961159f06e98e8-17">
          <mxGeometry y="120" width="310" height="8" as="geometry" />
        </mxCell>
        <mxCell id="HxNXwgfUjiXoVdBdXIaT-3" value="&lt;div&gt;constructor&amp;nbsp; create(unaHora: Time; unDia: Date);&lt;/div&gt;&lt;div&gt;procedure&amp;nbsp; &amp;nbsp;setCliente(unCliente: string); // Setter&lt;/div&gt;&lt;div&gt;procedure&amp;nbsp; &amp;nbsp;setTotalAPagar(unTotalAPagar: real);&amp;nbsp;&lt;/div&gt;&lt;div&gt;procedure&amp;nbsp; &amp;nbsp;agregarProducto(unProducto: producto);&lt;/div&gt;&lt;div&gt;function&amp;nbsp; &amp;nbsp; &amp;nbsp; cuantosProductosTenes():integer;&lt;/div&gt;&lt;div&gt;procedure&amp;nbsp; &amp;nbsp;imprimir();&amp;nbsp;&lt;/div&gt;" style="text;html=1;strokeColor=none;fillColor=none;align=left;verticalAlign=top;spacingLeft=4;spacingRight=4;whiteSpace=wrap;overflow=hidden;rotatable=0;points=[[0,0.5],[1,0.5]];portConstraint=eastwest;" vertex="1" parent="78961159f06e98e8-17">
          <mxGeometry y="128" width="310" height="120" as="geometry" />
        </mxCell>
        <mxCell id="78961159f06e98e8-30" value="Sysutils" style="swimlane;html=1;fontStyle=1;align=center;verticalAlign=top;childLayout=stackLayout;horizontal=1;startSize=26;horizontalStack=0;resizeParent=1;resizeLast=0;collapsible=1;marginBottom=0;swimlaneFillColor=#ffffff;rounded=0;shadow=0;comic=0;labelBackgroundColor=none;strokeWidth=1;fillColor=none;fontFamily=Verdana;fontSize=12" vertex="1" parent="1">
          <mxGeometry x="140" y="20" width="160" height="107" as="geometry" />
        </mxCell>
        <mxCell id="78961159f06e98e8-32" value="+ field: type" style="text;html=1;strokeColor=none;fillColor=none;align=left;verticalAlign=top;spacingLeft=4;spacingRight=4;whiteSpace=wrap;overflow=hidden;rotatable=0;points=[[0,0.5],[1,0.5]];portConstraint=eastwest;" vertex="1" parent="78961159f06e98e8-30">
          <mxGeometry y="26" width="160" height="26" as="geometry" />
        </mxCell>
        <mxCell id="78961159f06e98e8-38" value="" style="line;html=1;strokeWidth=1;fillColor=none;align=left;verticalAlign=middle;spacingTop=-1;spacingLeft=3;spacingRight=3;rotatable=0;labelPosition=right;points=[];portConstraint=eastwest;" vertex="1" parent="78961159f06e98e8-30">
          <mxGeometry y="52" width="160" height="8" as="geometry" />
        </mxCell>
        <mxCell id="78961159f06e98e8-39" value="format(&#39;%10.3f&#39;, [peso])" style="text;html=1;strokeColor=none;fillColor=none;align=left;verticalAlign=top;spacingLeft=4;spacingRight=4;whiteSpace=wrap;overflow=hidden;rotatable=0;points=[[0,0.5],[1,0.5]];portConstraint=eastwest;" vertex="1" parent="78961159f06e98e8-30">
          <mxGeometry y="60" width="160" height="26" as="geometry" />
        </mxCell>
        <mxCell id="HxNXwgfUjiXoVdBdXIaT-110" style="edgeStyle=orthogonalEdgeStyle;rounded=0;orthogonalLoop=1;jettySize=auto;html=1;" edge="1" parent="1" source="78961159f06e98e8-56" target="78961159f06e98e8-23">
          <mxGeometry relative="1" as="geometry" />
        </mxCell>
        <mxCell id="HxNXwgfUjiXoVdBdXIaT-116" style="edgeStyle=orthogonalEdgeStyle;rounded=0;orthogonalLoop=1;jettySize=auto;html=1;entryX=0;entryY=0.5;entryDx=0;entryDy=0;" edge="1" parent="1" source="78961159f06e98e8-56" target="HxNXwgfUjiXoVdBdXIaT-28">
          <mxGeometry relative="1" as="geometry" />
        </mxCell>
        <mxCell id="78961159f06e98e8-56" value="Date" style="swimlane;html=1;fontStyle=1;align=center;verticalAlign=top;childLayout=stackLayout;horizontal=1;startSize=26;horizontalStack=0;resizeParent=1;resizeLast=0;collapsible=1;marginBottom=0;swimlaneFillColor=#ffffff;rounded=0;shadow=0;comic=0;labelBackgroundColor=none;strokeWidth=1;fillColor=none;fontFamily=Verdana;fontSize=12" vertex="1" parent="1">
          <mxGeometry x="-1620" y="-330" width="240" height="146" as="geometry" />
        </mxCell>
        <mxCell id="78961159f06e98e8-57" value="year, month, day: integer;" style="text;html=1;strokeColor=none;fillColor=none;align=left;verticalAlign=top;spacingLeft=4;spacingRight=4;whiteSpace=wrap;overflow=hidden;rotatable=0;points=[[0,0.5],[1,0.5]];portConstraint=eastwest;" vertex="1" parent="78961159f06e98e8-56">
          <mxGeometry y="26" width="240" height="26" as="geometry" />
        </mxCell>
        <mxCell id="78961159f06e98e8-64" value="" style="line;html=1;strokeWidth=1;fillColor=none;align=left;verticalAlign=middle;spacingTop=-1;spacingLeft=3;spacingRight=3;rotatable=0;labelPosition=right;points=[];portConstraint=eastwest;" vertex="1" parent="78961159f06e98e8-56">
          <mxGeometry y="52" width="240" height="8" as="geometry" />
        </mxCell>
        <mxCell id="78961159f06e98e8-65" value="function getDay(): integer;" style="text;html=1;strokeColor=none;fillColor=none;align=left;verticalAlign=top;spacingLeft=4;spacingRight=4;whiteSpace=wrap;overflow=hidden;rotatable=0;points=[[0,0.5],[1,0.5]];portConstraint=eastwest;" vertex="1" parent="78961159f06e98e8-56">
          <mxGeometry y="60" width="240" height="26" as="geometry" />
        </mxCell>
        <mxCell id="78961159f06e98e8-66" value="&lt;div&gt;&lt;span style=&quot;white-space: normal;&quot;&gt;function getMonth(): integer;&lt;/span&gt;&lt;/div&gt;&lt;div&gt;&lt;br&gt;&lt;/div&gt;" style="text;html=1;strokeColor=none;fillColor=none;align=left;verticalAlign=top;spacingLeft=4;spacingRight=4;whiteSpace=wrap;overflow=hidden;rotatable=0;points=[[0,0.5],[1,0.5]];portConstraint=eastwest;" vertex="1" parent="78961159f06e98e8-56">
          <mxGeometry y="86" width="240" height="26" as="geometry" />
        </mxCell>
        <mxCell id="78961159f06e98e8-68" value="&lt;div&gt;&lt;span style=&quot;white-space: normal;&quot;&gt;function getYear(): integer;&lt;span style=&quot;white-space:pre&quot;&gt;&#x9;&#x9;&#x9;&lt;/span&gt;&lt;/span&gt;&lt;/div&gt;&lt;div&gt;&lt;br&gt;&lt;/div&gt;" style="text;html=1;strokeColor=none;fillColor=none;align=left;verticalAlign=top;spacingLeft=4;spacingRight=4;whiteSpace=wrap;overflow=hidden;rotatable=0;points=[[0,0.5],[1,0.5]];portConstraint=eastwest;" vertex="1" parent="78961159f06e98e8-56">
          <mxGeometry y="112" width="240" height="26" as="geometry" />
        </mxCell>
        <mxCell id="HxNXwgfUjiXoVdBdXIaT-109" style="edgeStyle=orthogonalEdgeStyle;rounded=0;orthogonalLoop=1;jettySize=auto;html=1;entryX=-0.008;entryY=0.228;entryDx=0;entryDy=0;entryPerimeter=0;" edge="1" parent="1" source="HxNXwgfUjiXoVdBdXIaT-4" target="78961159f06e98e8-23">
          <mxGeometry relative="1" as="geometry" />
        </mxCell>
        <mxCell id="HxNXwgfUjiXoVdBdXIaT-4" value="Time" style="swimlane;html=1;fontStyle=1;align=center;verticalAlign=top;childLayout=stackLayout;horizontal=1;startSize=26;horizontalStack=0;resizeParent=1;resizeLast=0;collapsible=1;marginBottom=0;swimlaneFillColor=#ffffff;rounded=0;shadow=0;comic=0;labelBackgroundColor=none;strokeWidth=1;fillColor=none;fontFamily=Verdana;fontSize=12" vertex="1" parent="1">
          <mxGeometry x="-1890" y="-310" width="240" height="222" as="geometry" />
        </mxCell>
        <mxCell id="HxNXwgfUjiXoVdBdXIaT-21" value="&lt;div&gt;first: boolean; static ;&lt;br&gt;&lt;/div&gt;" style="text;html=1;strokeColor=none;fillColor=none;align=left;verticalAlign=top;spacingLeft=4;spacingRight=4;whiteSpace=wrap;overflow=hidden;rotatable=0;points=[[0,0.5],[1,0.5]];portConstraint=eastwest;" vertex="1" parent="HxNXwgfUjiXoVdBdXIaT-4">
          <mxGeometry y="26" width="240" height="26" as="geometry" />
        </mxCell>
        <mxCell id="HxNXwgfUjiXoVdBdXIaT-5" value="&lt;div&gt;&lt;span style=&quot;white-space: normal;&quot;&gt;hour, minutes, seconds: integer;&lt;/span&gt;&lt;/div&gt;&lt;div&gt;&lt;br&gt;&lt;/div&gt;" style="text;html=1;strokeColor=none;fillColor=none;align=left;verticalAlign=top;spacingLeft=4;spacingRight=4;whiteSpace=wrap;overflow=hidden;rotatable=0;points=[[0,0.5],[1,0.5]];portConstraint=eastwest;" vertex="1" parent="HxNXwgfUjiXoVdBdXIaT-4">
          <mxGeometry y="52" width="240" height="26" as="geometry" />
        </mxCell>
        <mxCell id="HxNXwgfUjiXoVdBdXIaT-6" value="" style="line;html=1;strokeWidth=1;fillColor=none;align=left;verticalAlign=middle;spacingTop=-1;spacingLeft=3;spacingRight=3;rotatable=0;labelPosition=right;points=[];portConstraint=eastwest;" vertex="1" parent="HxNXwgfUjiXoVdBdXIaT-4">
          <mxGeometry y="78" width="240" height="8" as="geometry" />
        </mxCell>
        <mxCell id="HxNXwgfUjiXoVdBdXIaT-7" value="&lt;div&gt;&lt;span style=&quot;white-space: normal;&quot;&gt;constructor create(h, m, s: integer);&lt;/span&gt;&lt;/div&gt;" style="text;html=1;strokeColor=none;fillColor=none;align=left;verticalAlign=top;spacingLeft=4;spacingRight=4;whiteSpace=wrap;overflow=hidden;rotatable=0;points=[[0,0.5],[1,0.5]];portConstraint=eastwest;" vertex="1" parent="HxNXwgfUjiXoVdBdXIaT-4">
          <mxGeometry y="86" width="240" height="26" as="geometry" />
        </mxCell>
        <mxCell id="HxNXwgfUjiXoVdBdXIaT-8" value="&lt;div&gt;&lt;div&gt;&lt;span style=&quot;white-space: normal;&quot;&gt;function getHour(): integer;&lt;/span&gt;&lt;/div&gt;&lt;/div&gt;&lt;div&gt;&lt;br&gt;&lt;/div&gt;" style="text;html=1;strokeColor=none;fillColor=none;align=left;verticalAlign=top;spacingLeft=4;spacingRight=4;whiteSpace=wrap;overflow=hidden;rotatable=0;points=[[0,0.5],[1,0.5]];portConstraint=eastwest;" vertex="1" parent="HxNXwgfUjiXoVdBdXIaT-4">
          <mxGeometry y="112" width="240" height="26" as="geometry" />
        </mxCell>
        <mxCell id="HxNXwgfUjiXoVdBdXIaT-9" value="&lt;div&gt;&lt;div&gt;&lt;span style=&quot;white-space: normal;&quot;&gt;function getMinutes(): integer;&lt;/span&gt;&lt;/div&gt;&lt;/div&gt;&lt;div&gt;&lt;br&gt;&lt;/div&gt;" style="text;html=1;strokeColor=none;fillColor=none;align=left;verticalAlign=top;spacingLeft=4;spacingRight=4;whiteSpace=wrap;overflow=hidden;rotatable=0;points=[[0,0.5],[1,0.5]];portConstraint=eastwest;" vertex="1" parent="HxNXwgfUjiXoVdBdXIaT-4">
          <mxGeometry y="138" width="240" height="28" as="geometry" />
        </mxCell>
        <mxCell id="HxNXwgfUjiXoVdBdXIaT-16" value="&lt;div&gt;&lt;div&gt;&lt;div&gt;&lt;span style=&quot;white-space: normal;&quot;&gt;function getSeconds(): integer;&lt;/span&gt;&lt;/div&gt;&lt;/div&gt;&lt;/div&gt;&lt;div&gt;&lt;br&gt;&lt;/div&gt;" style="text;html=1;strokeColor=none;fillColor=none;align=left;verticalAlign=top;spacingLeft=4;spacingRight=4;whiteSpace=wrap;overflow=hidden;rotatable=0;points=[[0,0.5],[1,0.5]];portConstraint=eastwest;" vertex="1" parent="HxNXwgfUjiXoVdBdXIaT-4">
          <mxGeometry y="166" width="240" height="28" as="geometry" />
        </mxCell>
        <mxCell id="HxNXwgfUjiXoVdBdXIaT-17" value="&lt;div&gt;&lt;div&gt;&lt;div&gt;&lt;div&gt;&lt;span style=&quot;white-space: normal;&quot;&gt;function toString(): ansistring; override;&lt;/span&gt;&lt;/div&gt;&lt;/div&gt;&lt;/div&gt;&lt;/div&gt;&lt;div&gt;&lt;br&gt;&lt;/div&gt;" style="text;html=1;strokeColor=none;fillColor=none;align=left;verticalAlign=top;spacingLeft=4;spacingRight=4;whiteSpace=wrap;overflow=hidden;rotatable=0;points=[[0,0.5],[1,0.5]];portConstraint=eastwest;" vertex="1" parent="HxNXwgfUjiXoVdBdXIaT-4">
          <mxGeometry y="194" width="240" height="28" as="geometry" />
        </mxCell>
        <mxCell id="HxNXwgfUjiXoVdBdXIaT-20" value="RandomGenerator" style="swimlane;html=1;fontStyle=1;align=center;verticalAlign=top;childLayout=stackLayout;horizontal=1;startSize=26;horizontalStack=0;resizeParent=1;resizeLast=0;collapsible=1;marginBottom=0;swimlaneFillColor=#ffffff;rounded=0;shadow=0;comic=0;labelBackgroundColor=none;strokeWidth=1;fillColor=none;fontFamily=Verdana;fontSize=12" vertex="1" parent="1">
          <mxGeometry x="-1300" y="-630" width="400" height="454" as="geometry" />
        </mxCell>
        <mxCell id="HxNXwgfUjiXoVdBdXIaT-23" value="labels: Lista;" style="text;html=1;strokeColor=none;fillColor=none;align=left;verticalAlign=top;spacingLeft=4;spacingRight=4;whiteSpace=wrap;overflow=hidden;rotatable=0;points=[[0,0.5],[1,0.5]];portConstraint=eastwest;" vertex="1" parent="HxNXwgfUjiXoVdBdXIaT-20">
          <mxGeometry y="26" width="400" height="26" as="geometry" />
        </mxCell>
        <mxCell id="HxNXwgfUjiXoVdBdXIaT-29" value="cantLabels: integer;" style="text;html=1;strokeColor=none;fillColor=none;align=left;verticalAlign=top;spacingLeft=4;spacingRight=4;whiteSpace=wrap;overflow=hidden;rotatable=0;points=[[0,0.5],[1,0.5]];portConstraint=eastwest;" vertex="1" parent="HxNXwgfUjiXoVdBdXIaT-20">
          <mxGeometry y="52" width="400" height="26" as="geometry" />
        </mxCell>
        <mxCell id="HxNXwgfUjiXoVdBdXIaT-26" value="&lt;div&gt;&lt;div&gt;&lt;div&gt;function between(min, max: Date; m, a: integer): boolean;&lt;br&gt;&lt;/div&gt;&lt;/div&gt;&lt;/div&gt;" style="text;html=1;strokeColor=none;fillColor=none;align=left;verticalAlign=top;spacingLeft=4;spacingRight=4;whiteSpace=wrap;overflow=hidden;rotatable=0;points=[[0,0.5],[1,0.5]];portConstraint=eastwest;" vertex="1" parent="HxNXwgfUjiXoVdBdXIaT-20">
          <mxGeometry y="78" width="400" height="28" as="geometry" />
        </mxCell>
        <mxCell id="HxNXwgfUjiXoVdBdXIaT-27" value="&lt;div&gt;&lt;div&gt;&lt;div&gt;&lt;div&gt;function between(min, max: Date; d, m, a: integer): boolean;&lt;br&gt;&lt;/div&gt;&lt;/div&gt;&lt;/div&gt;&lt;/div&gt;" style="text;html=1;strokeColor=none;fillColor=none;align=left;verticalAlign=top;spacingLeft=4;spacingRight=4;whiteSpace=wrap;overflow=hidden;rotatable=0;points=[[0,0.5],[1,0.5]];portConstraint=eastwest;" vertex="1" parent="HxNXwgfUjiXoVdBdXIaT-20">
          <mxGeometry y="106" width="400" height="28" as="geometry" />
        </mxCell>
        <mxCell id="HxNXwgfUjiXoVdBdXIaT-28" value="&lt;div&gt;function between(min, max: Time; m, h: integer): boolean;&lt;br&gt;&lt;/div&gt;" style="text;html=1;strokeColor=none;fillColor=none;align=left;verticalAlign=top;spacingLeft=4;spacingRight=4;whiteSpace=wrap;overflow=hidden;rotatable=0;points=[[0,0.5],[1,0.5]];portConstraint=eastwest;" vertex="1" parent="HxNXwgfUjiXoVdBdXIaT-20">
          <mxGeometry y="134" width="400" height="26" as="geometry" />
        </mxCell>
        <mxCell id="HxNXwgfUjiXoVdBdXIaT-30" value="function between(min, max: Time; s, m, h: integer): boolean;" style="text;html=1;strokeColor=none;fillColor=none;align=left;verticalAlign=top;spacingLeft=4;spacingRight=4;whiteSpace=wrap;overflow=hidden;rotatable=0;points=[[0,0.5],[1,0.5]];portConstraint=eastwest;" vertex="1" parent="HxNXwgfUjiXoVdBdXIaT-20">
          <mxGeometry y="160" width="400" height="26" as="geometry" />
        </mxCell>
        <mxCell id="HxNXwgfUjiXoVdBdXIaT-22" value="" style="line;html=1;strokeWidth=1;fillColor=none;align=left;verticalAlign=middle;spacingTop=-1;spacingLeft=3;spacingRight=3;rotatable=0;labelPosition=right;points=[];portConstraint=eastwest;" vertex="1" parent="HxNXwgfUjiXoVdBdXIaT-20">
          <mxGeometry y="186" width="400" height="8" as="geometry" />
        </mxCell>
        <mxCell id="HxNXwgfUjiXoVdBdXIaT-31" value="&lt;div&gt;function getInteger(min, max: integer): integer;&lt;br&gt;&lt;/div&gt;" style="text;html=1;strokeColor=none;fillColor=none;align=left;verticalAlign=top;spacingLeft=4;spacingRight=4;whiteSpace=wrap;overflow=hidden;rotatable=0;points=[[0,0.5],[1,0.5]];portConstraint=eastwest;" vertex="1" parent="HxNXwgfUjiXoVdBdXIaT-20">
          <mxGeometry y="194" width="400" height="26" as="geometry" />
        </mxCell>
        <mxCell id="HxNXwgfUjiXoVdBdXIaT-32" value="&lt;div&gt;function getReal(min, max: real): real;&lt;br&gt;&lt;/div&gt;" style="text;html=1;strokeColor=none;fillColor=none;align=left;verticalAlign=top;spacingLeft=4;spacingRight=4;whiteSpace=wrap;overflow=hidden;rotatable=0;points=[[0,0.5],[1,0.5]];portConstraint=eastwest;" vertex="1" parent="HxNXwgfUjiXoVdBdXIaT-20">
          <mxGeometry y="220" width="400" height="26" as="geometry" />
        </mxCell>
        <mxCell id="HxNXwgfUjiXoVdBdXIaT-33" value="&lt;div&gt;function getString(cantCaracteres: integer): string;&lt;br&gt;&lt;/div&gt;" style="text;html=1;strokeColor=none;fillColor=none;align=left;verticalAlign=top;spacingLeft=4;spacingRight=4;whiteSpace=wrap;overflow=hidden;rotatable=0;points=[[0,0.5],[1,0.5]];portConstraint=eastwest;" vertex="1" parent="HxNXwgfUjiXoVdBdXIaT-20">
          <mxGeometry y="246" width="400" height="26" as="geometry" />
        </mxCell>
        <mxCell id="HxNXwgfUjiXoVdBdXIaT-34" value="&lt;div&gt;function getBoolean(): boolean;&lt;br&gt;&lt;/div&gt;" style="text;html=1;strokeColor=none;fillColor=none;align=left;verticalAlign=top;spacingLeft=4;spacingRight=4;whiteSpace=wrap;overflow=hidden;rotatable=0;points=[[0,0.5],[1,0.5]];portConstraint=eastwest;" vertex="1" parent="HxNXwgfUjiXoVdBdXIaT-20">
          <mxGeometry y="272" width="400" height="26" as="geometry" />
        </mxCell>
        <mxCell id="HxNXwgfUjiXoVdBdXIaT-35" value="&lt;div&gt;function getDate(min, max: Date): Date;&lt;br&gt;&lt;/div&gt;" style="text;html=1;strokeColor=none;fillColor=none;align=left;verticalAlign=top;spacingLeft=4;spacingRight=4;whiteSpace=wrap;overflow=hidden;rotatable=0;points=[[0,0.5],[1,0.5]];portConstraint=eastwest;" vertex="1" parent="HxNXwgfUjiXoVdBdXIaT-20">
          <mxGeometry y="298" width="400" height="26" as="geometry" />
        </mxCell>
        <mxCell id="HxNXwgfUjiXoVdBdXIaT-36" value="&lt;div&gt;function getTime(min, max: Time): Time;&lt;br&gt;&lt;/div&gt;" style="text;html=1;strokeColor=none;fillColor=none;align=left;verticalAlign=top;spacingLeft=4;spacingRight=4;whiteSpace=wrap;overflow=hidden;rotatable=0;points=[[0,0.5],[1,0.5]];portConstraint=eastwest;" vertex="1" parent="HxNXwgfUjiXoVdBdXIaT-20">
          <mxGeometry y="324" width="400" height="26" as="geometry" />
        </mxCell>
        <mxCell id="HxNXwgfUjiXoVdBdXIaT-37" value="&lt;div&gt;procedure addLabel(lab: string);&lt;br&gt;&lt;/div&gt;" style="text;html=1;strokeColor=none;fillColor=none;align=left;verticalAlign=top;spacingLeft=4;spacingRight=4;whiteSpace=wrap;overflow=hidden;rotatable=0;points=[[0,0.5],[1,0.5]];portConstraint=eastwest;" vertex="1" parent="HxNXwgfUjiXoVdBdXIaT-20">
          <mxGeometry y="350" width="400" height="26" as="geometry" />
        </mxCell>
        <mxCell id="HxNXwgfUjiXoVdBdXIaT-38" value="&lt;div&gt;function getLabel(): string;&lt;span style=&quot;white-space:pre&quot;&gt;&#x9;&lt;/span&gt;&lt;br&gt;&lt;/div&gt;" style="text;html=1;strokeColor=none;fillColor=none;align=left;verticalAlign=top;spacingLeft=4;spacingRight=4;whiteSpace=wrap;overflow=hidden;rotatable=0;points=[[0,0.5],[1,0.5]];portConstraint=eastwest;" vertex="1" parent="HxNXwgfUjiXoVdBdXIaT-20">
          <mxGeometry y="376" width="400" height="26" as="geometry" />
        </mxCell>
        <mxCell id="HxNXwgfUjiXoVdBdXIaT-39" value="&lt;div&gt;procedure clearLabels();&lt;br&gt;&lt;/div&gt;" style="text;html=1;strokeColor=none;fillColor=none;align=left;verticalAlign=top;spacingLeft=4;spacingRight=4;whiteSpace=wrap;overflow=hidden;rotatable=0;points=[[0,0.5],[1,0.5]];portConstraint=eastwest;" vertex="1" parent="HxNXwgfUjiXoVdBdXIaT-20">
          <mxGeometry y="402" width="400" height="26" as="geometry" />
        </mxCell>
        <mxCell id="HxNXwgfUjiXoVdBdXIaT-106" style="edgeStyle=orthogonalEdgeStyle;rounded=0;orthogonalLoop=1;jettySize=auto;html=1;" edge="1" parent="1" source="HxNXwgfUjiXoVdBdXIaT-40" target="78961159f06e98e8-23">
          <mxGeometry relative="1" as="geometry" />
        </mxCell>
        <mxCell id="HxNXwgfUjiXoVdBdXIaT-40" value="GenericLinkedList" style="swimlane;html=1;fontStyle=1;align=center;verticalAlign=top;childLayout=stackLayout;horizontal=1;startSize=26;horizontalStack=0;resizeParent=1;resizeLast=0;collapsible=1;marginBottom=0;swimlaneFillColor=#ffffff;rounded=0;shadow=0;comic=0;labelBackgroundColor=none;strokeWidth=1;fillColor=none;fontFamily=Verdana;fontSize=12" vertex="1" parent="1">
          <mxGeometry x="-690" y="-390" width="410" height="328" as="geometry" />
        </mxCell>
        <mxCell id="HxNXwgfUjiXoVdBdXIaT-41" value="&lt;div&gt;&lt;div&gt;pri, ult, cur, prev : TLista;&lt;/div&gt;&lt;div&gt;&amp;nbsp; &amp;nbsp;&amp;nbsp;&lt;/div&gt;&lt;div&gt;&amp;nbsp; &amp;nbsp; function createNode(datum :T) : Tlista;&lt;/div&gt;&lt;div&gt;&amp;nbsp; &amp;nbsp; function empty : boolean;&lt;/div&gt;&lt;div&gt;&amp;nbsp; &amp;nbsp; procedure relocatePointers;&lt;/div&gt;&lt;/div&gt;" style="text;html=1;strokeColor=none;fillColor=none;align=left;verticalAlign=top;spacingLeft=4;spacingRight=4;whiteSpace=wrap;overflow=hidden;rotatable=0;points=[[0,0.5],[1,0.5]];portConstraint=eastwest;" vertex="1" parent="HxNXwgfUjiXoVdBdXIaT-40">
          <mxGeometry y="26" width="410" height="100" as="geometry" />
        </mxCell>
        <mxCell id="HxNXwgfUjiXoVdBdXIaT-48" value="" style="line;html=1;strokeWidth=1;fillColor=none;align=left;verticalAlign=middle;spacingTop=-1;spacingLeft=3;spacingRight=3;rotatable=0;labelPosition=right;points=[];portConstraint=eastwest;" vertex="1" parent="HxNXwgfUjiXoVdBdXIaT-40">
          <mxGeometry y="126" width="410" height="10" as="geometry" />
        </mxCell>
        <mxCell id="HxNXwgfUjiXoVdBdXIaT-57" value="&lt;div&gt;&lt;div&gt;&amp;nbsp; &amp;nbsp; constructor create;&lt;/div&gt;&lt;div&gt;&amp;nbsp; &amp;nbsp; procedure reset;&lt;/div&gt;&lt;div&gt;&amp;nbsp; &amp;nbsp; function eol : boolean;&lt;/div&gt;&lt;div&gt;&amp;nbsp; &amp;nbsp; function current : T;&lt;/div&gt;&lt;div&gt;&amp;nbsp; &amp;nbsp; procedure next;&lt;/div&gt;&lt;div&gt;&amp;nbsp; &amp;nbsp; procedure addFirst(datum: T);&lt;/div&gt;&lt;div&gt;&amp;nbsp; &amp;nbsp; procedure addLast(datum: T);&lt;/div&gt;&lt;div&gt;&amp;nbsp; &amp;nbsp; procedure add(datum: T);&lt;/div&gt;&lt;div&gt;&amp;nbsp; &amp;nbsp; procedure insertCurrent(datum: T);&lt;/div&gt;&lt;div&gt;&amp;nbsp; &amp;nbsp; function removeCurrent : T;&lt;/div&gt;&lt;/div&gt;&lt;div&gt;&lt;br&gt;&lt;/div&gt;" style="text;html=1;strokeColor=none;fillColor=none;align=left;verticalAlign=top;spacingLeft=4;spacingRight=4;whiteSpace=wrap;overflow=hidden;rotatable=0;points=[[0,0.5],[1,0.5]];portConstraint=eastwest;" vertex="1" parent="HxNXwgfUjiXoVdBdXIaT-40">
          <mxGeometry y="136" width="410" height="192" as="geometry" />
        </mxCell>
        <mxCell id="HxNXwgfUjiXoVdBdXIaT-94" value="Balanza" style="swimlane;html=1;fontStyle=1;align=center;verticalAlign=top;childLayout=stackLayout;horizontal=1;startSize=26;horizontalStack=0;resizeParent=1;resizeLast=0;collapsible=1;marginBottom=0;swimlaneFillColor=#ffffff;rounded=0;shadow=0;comic=0;labelBackgroundColor=none;strokeWidth=1;fillColor=none;fontFamily=Verdana;fontSize=12" vertex="1" parent="1">
          <mxGeometry x="-1560" y="210" width="410" height="328" as="geometry" />
        </mxCell>
        <mxCell id="HxNXwgfUjiXoVdBdXIaT-95" value="&lt;div&gt;cantProds: integer;&lt;/div&gt;&lt;div&gt;&lt;span style=&quot;white-space: normal;&quot;&gt;precioPorKilo, totalAPagar: real;&lt;/span&gt;&lt;/div&gt;" style="text;html=1;strokeColor=none;fillColor=none;align=left;verticalAlign=top;spacingLeft=4;spacingRight=4;whiteSpace=wrap;overflow=hidden;rotatable=0;points=[[0,0.5],[1,0.5]];portConstraint=eastwest;" vertex="1" parent="HxNXwgfUjiXoVdBdXIaT-94">
          <mxGeometry y="26" width="410" height="100" as="geometry" />
        </mxCell>
        <mxCell id="HxNXwgfUjiXoVdBdXIaT-96" value="" style="line;html=1;strokeWidth=1;fillColor=none;align=left;verticalAlign=middle;spacingTop=-1;spacingLeft=3;spacingRight=3;rotatable=0;labelPosition=right;points=[];portConstraint=eastwest;" vertex="1" parent="HxNXwgfUjiXoVdBdXIaT-94">
          <mxGeometry y="126" width="410" height="10" as="geometry" />
        </mxCell>
        <mxCell id="HxNXwgfUjiXoVdBdXIaT-97" value="&lt;div&gt;&lt;div&gt;&lt;div&gt;constructor create();&lt;/div&gt;&lt;div&gt;&lt;span style=&quot;white-space: pre; white-space: normal;&quot;&gt;&#x9;&#x9;&#x9;&lt;/span&gt;&lt;/div&gt;&lt;div&gt;&lt;span style=&quot;white-space: normal;&quot;&gt;procedure limpiar();&lt;/span&gt;&lt;/div&gt;&lt;div&gt;&lt;span style=&quot;white-space: normal;&quot;&gt;procedure setPrecioPorKilo(unPrecioPorKilo: real);&lt;/span&gt;&lt;/div&gt;&lt;div&gt;&lt;span style=&quot;white-space: normal;&quot;&gt;procedure pesar(unPesoEnKilos: real);&lt;/span&gt;&lt;/div&gt;&lt;div&gt;&lt;span style=&quot;white-space: normal;&quot;&gt;procedure imprimir();&lt;/span&gt;&lt;/div&gt;&lt;div&gt;&lt;span style=&quot;white-space: normal;&quot;&gt;function getTotalAPagar(): real;&lt;/span&gt;&lt;/div&gt;&lt;/div&gt;&lt;/div&gt;" style="text;html=1;strokeColor=none;fillColor=none;align=left;verticalAlign=top;spacingLeft=4;spacingRight=4;whiteSpace=wrap;overflow=hidden;rotatable=0;points=[[0,0.5],[1,0.5]];portConstraint=eastwest;" vertex="1" parent="HxNXwgfUjiXoVdBdXIaT-94">
          <mxGeometry y="136" width="410" height="192" as="geometry" />
        </mxCell>
        <mxCell id="HxNXwgfUjiXoVdBdXIaT-98" value="Carrito" style="swimlane;html=1;fontStyle=1;align=center;verticalAlign=top;childLayout=stackLayout;horizontal=1;startSize=26;horizontalStack=0;resizeParent=1;resizeLast=0;collapsible=1;marginBottom=0;swimlaneFillColor=#ffffff;rounded=0;shadow=0;comic=0;labelBackgroundColor=none;strokeWidth=1;fillColor=none;fontFamily=Verdana;fontSize=12" vertex="1" parent="1">
          <mxGeometry x="-400" y="70" width="340" height="160" as="geometry" />
        </mxCell>
        <mxCell id="HxNXwgfUjiXoVdBdXIaT-99" value="&lt;div&gt;&lt;span style=&quot;white-space: normal;&quot;&gt;cantprod:integer;&lt;/span&gt;&lt;/div&gt;&lt;div&gt;&lt;span style=&quot;white-space: normal;&quot;&gt;producto:lista;&lt;/span&gt;&lt;/div&gt;" style="text;html=1;strokeColor=none;fillColor=none;align=left;verticalAlign=top;spacingLeft=4;spacingRight=4;whiteSpace=wrap;overflow=hidden;rotatable=0;points=[[0,0.5],[1,0.5]];portConstraint=eastwest;" vertex="1" parent="HxNXwgfUjiXoVdBdXIaT-98">
          <mxGeometry y="26" width="340" height="44" as="geometry" />
        </mxCell>
        <mxCell id="HxNXwgfUjiXoVdBdXIaT-100" value="" style="line;html=1;strokeWidth=1;fillColor=none;align=left;verticalAlign=middle;spacingTop=-1;spacingLeft=3;spacingRight=3;rotatable=0;labelPosition=right;points=[];portConstraint=eastwest;" vertex="1" parent="HxNXwgfUjiXoVdBdXIaT-98">
          <mxGeometry y="70" width="340" height="10" as="geometry" />
        </mxCell>
        <mxCell id="HxNXwgfUjiXoVdBdXIaT-101" value="&lt;div&gt;&lt;span style=&quot;white-space: normal;&quot;&gt;CONSTRUCTOR create();&lt;/span&gt;&lt;/div&gt;&lt;div&gt;&lt;span style=&quot;white-space: normal;&quot;&gt;PROCEDURE agregarProducto(unProducto:Producto);&lt;/span&gt;&lt;/div&gt;&lt;div&gt;&lt;span style=&quot;white-space: normal;&quot;&gt;FUNCTION sacarProducto():producto;&lt;/span&gt;&lt;/div&gt;&lt;div&gt;&lt;span style=&quot;white-space: normal;&quot;&gt;FUNCTION gettotalprod():integer;&lt;/span&gt;&lt;/div&gt;" style="text;html=1;strokeColor=none;fillColor=none;align=left;verticalAlign=top;spacingLeft=4;spacingRight=4;whiteSpace=wrap;overflow=hidden;rotatable=0;points=[[0,0.5],[1,0.5]];portConstraint=eastwest;" vertex="1" parent="HxNXwgfUjiXoVdBdXIaT-98">
          <mxGeometry y="80" width="340" height="80" as="geometry" />
        </mxCell>
        <mxCell id="HxNXwgfUjiXoVdBdXIaT-102" value="Producto" style="swimlane;html=1;fontStyle=1;align=center;verticalAlign=top;childLayout=stackLayout;horizontal=1;startSize=26;horizontalStack=0;resizeParent=1;resizeLast=0;collapsible=1;marginBottom=0;swimlaneFillColor=#ffffff;rounded=0;shadow=0;comic=0;labelBackgroundColor=none;strokeWidth=1;fillColor=none;fontFamily=Verdana;fontSize=12" vertex="1" parent="1">
          <mxGeometry x="-970" y="410" width="410" height="204" as="geometry" />
        </mxCell>
        <mxCell id="HxNXwgfUjiXoVdBdXIaT-103" value="&lt;div&gt;cantProds: integer;&lt;/div&gt;&lt;div&gt;&lt;span style=&quot;white-space: normal;&quot;&gt;precioPorKilo, totalAPagar: real;&lt;/span&gt;&lt;/div&gt;" style="text;html=1;strokeColor=none;fillColor=none;align=left;verticalAlign=top;spacingLeft=4;spacingRight=4;whiteSpace=wrap;overflow=hidden;rotatable=0;points=[[0,0.5],[1,0.5]];portConstraint=eastwest;" vertex="1" parent="HxNXwgfUjiXoVdBdXIaT-102">
          <mxGeometry y="26" width="410" height="40" as="geometry" />
        </mxCell>
        <mxCell id="HxNXwgfUjiXoVdBdXIaT-104" value="" style="line;html=1;strokeWidth=1;fillColor=none;align=left;verticalAlign=middle;spacingTop=-1;spacingLeft=3;spacingRight=3;rotatable=0;labelPosition=right;points=[];portConstraint=eastwest;" vertex="1" parent="HxNXwgfUjiXoVdBdXIaT-102">
          <mxGeometry y="66" width="410" height="10" as="geometry" />
        </mxCell>
        <mxCell id="HxNXwgfUjiXoVdBdXIaT-105" value="&lt;div&gt;&lt;div&gt;&lt;div&gt;constructor create();&lt;/div&gt;&lt;div&gt;&lt;span style=&quot;white-space: pre; white-space: normal;&quot;&gt;&#x9;&#x9;&#x9;&lt;/span&gt;&lt;/div&gt;&lt;div&gt;&lt;span style=&quot;white-space: normal;&quot;&gt;procedure limpiar();&lt;/span&gt;&lt;/div&gt;&lt;div&gt;&lt;span style=&quot;white-space: normal;&quot;&gt;procedure setPrecioPorKilo(unPrecioPorKilo: real);&lt;/span&gt;&lt;/div&gt;&lt;div&gt;&lt;span style=&quot;white-space: normal;&quot;&gt;procedure pesar(unPesoEnKilos: real);&lt;/span&gt;&lt;/div&gt;&lt;div&gt;&lt;span style=&quot;white-space: normal;&quot;&gt;procedure imprimir();&lt;/span&gt;&lt;/div&gt;&lt;div&gt;&lt;span style=&quot;white-space: normal;&quot;&gt;function getTotalAPagar(): real;&lt;/span&gt;&lt;/div&gt;&lt;/div&gt;&lt;/div&gt;" style="text;html=1;strokeColor=none;fillColor=none;align=left;verticalAlign=top;spacingLeft=4;spacingRight=4;whiteSpace=wrap;overflow=hidden;rotatable=0;points=[[0,0.5],[1,0.5]];portConstraint=eastwest;" vertex="1" parent="HxNXwgfUjiXoVdBdXIaT-102">
          <mxGeometry y="76" width="410" height="114" as="geometry" />
        </mxCell>
        <mxCell id="HxNXwgfUjiXoVdBdXIaT-108" style="edgeStyle=orthogonalEdgeStyle;rounded=0;orthogonalLoop=1;jettySize=auto;html=1;" edge="1" parent="1" source="HxNXwgfUjiXoVdBdXIaT-105">
          <mxGeometry relative="1" as="geometry">
            <mxPoint x="-870" y="270" as="targetPoint" />
          </mxGeometry>
        </mxCell>
        <mxCell id="HxNXwgfUjiXoVdBdXIaT-112" style="edgeStyle=orthogonalEdgeStyle;rounded=0;orthogonalLoop=1;jettySize=auto;html=1;entryX=0.955;entryY=0;entryDx=0;entryDy=0;entryPerimeter=0;" edge="1" parent="1" source="HxNXwgfUjiXoVdBdXIaT-41" target="HxNXwgfUjiXoVdBdXIaT-99">
          <mxGeometry relative="1" as="geometry" />
        </mxCell>
        <mxCell id="HxNXwgfUjiXoVdBdXIaT-113" style="edgeStyle=orthogonalEdgeStyle;rounded=0;orthogonalLoop=1;jettySize=auto;html=1;entryX=0;entryY=0.5;entryDx=0;entryDy=0;" edge="1" parent="1" source="HxNXwgfUjiXoVdBdXIaT-105" target="HxNXwgfUjiXoVdBdXIaT-99">
          <mxGeometry relative="1" as="geometry" />
        </mxCell>
        <mxCell id="HxNXwgfUjiXoVdBdXIaT-114" style="edgeStyle=orthogonalEdgeStyle;rounded=0;orthogonalLoop=1;jettySize=auto;html=1;entryX=0.033;entryY=1.154;entryDx=0;entryDy=0;entryPerimeter=0;" edge="1" parent="1" source="HxNXwgfUjiXoVdBdXIaT-4" target="HxNXwgfUjiXoVdBdXIaT-23">
          <mxGeometry relative="1" as="geometry" />
        </mxCell>
        <mxCell id="HxNXwgfUjiXoVdBdXIaT-115" style="edgeStyle=orthogonalEdgeStyle;rounded=0;orthogonalLoop=1;jettySize=auto;html=1;entryX=1;entryY=0.5;entryDx=0;entryDy=0;" edge="1" parent="1" source="HxNXwgfUjiXoVdBdXIaT-41" target="HxNXwgfUjiXoVdBdXIaT-27">
          <mxGeometry relative="1" as="geometry" />
        </mxCell>
      </root>
    </mxGraphModel>
  </diagram>
</mxfile>
